# xmcd
#
# Track frame offsets:
#  150
#  11757
#  25929
#  40647
#  56253
#  70950
#  82236
#  93162
#  106161
#  114489
#  124896
#  136287
#  147624
#  160383
#  172314
#
# Disc length: 2513 seconds
#
# Revision: 0
# Processed by: cddbd v1.5.1PL2 Copyright (c) Steve Scherf et al.
# Submitted via: Collectorz.com_Music_Collector 6.11
#
DISCID=d209cf0f
DTITLE=Various Artist - Blues Serie Gold [CD1)
DYEAR=2004
DGENRE=Blues
TTITLE0=John Lee Hooker - John Lee Hooker-Hard Head Woman
TTITLE1=Buddy Guy - Buddy Guy-Broken Hearted Blues
TTITLE2=Sonny Terry - Brownee Mcghee - Sonny Terry and Brownee Mcghee-Down By The Riverside
TTITLE3=Mississipi Fred Mc Dowell - Mississipi Fred Mc Dowell-Good Morning Little School Girl
TTITLE4=Muddy Waters - Muddy Waters-Baby Please Don't Go
TTITLE5=Ray Charles - Ray Charles-Sentimental Blues
TTITLE6=B.B. King - B.B. King-Catfish Blues
TTITLE7=Charles Brown - Charles Brown-Rockin' Blues
TTITLE8=Dr. John - Dr. John-New Orleans
TTITLE9=Jimmy Reed - Jimmy Reed-Ain't That Loving You Baby
TTITLE10=Jimmy Witherspoon - Jimmy Witherspoon-Trouble In Mind
TTITLE11=Robert Johnson - Robert Johnson-Crossroad Blues
TTITLE12=T Bone Walker - T Bone Walker-Midnight Blues
TTITLE13=Wilbert Harrison - Wilbert Harrison-Let's Work Together
TTITLE14=Buddy Guy - Junior Wells - Buddy Guy and Junior Wells-Satisfaction
EXTD=
EXTT0=
EXTT1=
EXTT2=
EXTT3=
EXTT4=
EXTT5=
EXTT6=
EXTT7=
EXTT8=
EXTT9=
EXTT10=
EXTT11=
EXTT12=
EXTT13=
EXTT14=
PLAYORDER=
